# xmcd
#
# Track frame offsets:
#	150
#	15487
#	30642
#	50522
#	65190
#	80505
#	93800
#	109282
#	120322
#	137130
#	150642
#	163490
#	179640
#	195634
#	212860
#	229045
#	246697
#
# Disc length: 3493 seconds
#
# Revision: 0
# Processed by: cddbd v1.4PL0 Copyright (c) Steve Scherf et al.
# Submitted via: EasyCDDAExtractor 4.5.0.2
#
DISCID=f50da311
DTITLE=Vários - Reserva Especial - Mensagem FM (89,3)
DYEAR=1900
DGENRE=
TTITLE0=Chico Rey e Paraná - Canarinho Prisioneiro
TTITLE1=Juliano César - A Malvada
TTITLE2=Dois a Um - Amor Perfeito
TTITLE3=Jad e Jeferson - Escolta de Vagalumes
TTITLE4=Lucas e Luan - Mexe que é Bom
TTITLE5=Ney e Nando - Na sola da bota
TTITLE6=Lucas e Matheus - Tô Fora
TTITLE7=Trio Parada Dura - Sanfoneiro Maior
TTITLE8=Marciano - Telefone (Alô)
TTITLE9=Trio Alto Astral - Bom Demais da Conta
TTITLE10=Chico Rey e Paraná - Tá com raiva de mim
TTITLE11=Juliano César - Cowboy Vagabundo
TTITLE12=Dois a Um - Telefone Mudo
TTITLE13=Jad e Jeferson - Eutrepsemia (Doença de Gato)
TTITLE14=Lucas e Luan - Deixa a Pipoca Arrebentar
TTITLE15=Pedro Bento e Zé da Estrada - Mágoa de Boiadeiro
TTITLE16=Ulisses e Moisés - Cowboy de Coração
EXTD=
EXTT0=
EXTT1=
EXTT2=
EXTT3=
EXTT4=
EXTT5=
EXTT6=
EXTT7=
EXTT8=
EXTT9=
EXTT10=
EXTT11=
EXTT12=
EXTT13=
EXTT14=
EXTT15=
EXTT16=
PLAYORDER=
